<svg xmlns="http://www.w3.org/2000/svg" viewBox="0 0 400 300" role="img" aria-label="Buzz-Chat-Bot">
  <rect width="400" height="300" fill="#f4ecd8"/>
  <g transform="translate(46 50)">
    <path d="M 0 0 L 174 0 Q 192 0 192 18 L 192 70 Q 192 88 174 88 L 40 88 L 22 108 L 22 88 Q 0 88 0 70 Z" fill="#2d6377"/>
    <text x="14" y="22" font-family="Georgia, serif" font-size="10" font-weight="700" fill="#f4ecd8" opacity="0.85">@you</text>
    <line x1="14" y1="30" x2="170" y2="30" stroke="#f4ecd8" stroke-width="1" opacity="0.4"/>
    <text x="14" y="50" font-family="Georgia, serif" font-size="11" fill="#f4ecd8">what is jaiku?</text>
    <text x="14" y="70" font-family="Georgia, serif" font-size="11" fill="#f4ecd8" opacity="0.7">/who-knows</text>
  </g>
  <g transform="translate(180 156)">
    <path d="M 0 0 L 184 0 Q 202 0 202 18 L 202 78 Q 202 96 184 96 L 28 96 L 8 116 L 8 96 Q 0 96 0 78 Z" fill="#7f0000"/>
    <g transform="translate(14 16)">
      <rect x="0" y="0" width="28" height="22" fill="#f4ecd8"/>
      <rect x="6" y="6" width="6" height="6" fill="#7f0000"/>
      <rect x="16" y="6" width="6" height="6" fill="#7f0000"/>
      <rect x="6" y="16" width="16" height="2" fill="#7f0000"/>
      <line x1="14" y1="-4" x2="14" y2="-10" stroke="#f4ecd8" stroke-width="2"/>
      <circle cx="14" cy="-12" r="2" fill="#d49431"/>
    </g>
    <text x="50" y="28" font-family="Georgia, serif" font-size="10" font-weight="700" fill="#f4ecd8" opacity="0.85">@buzzbot</text>
    <line x1="50" y1="34" x2="180" y2="34" stroke="#f4ecd8" stroke-width="1" opacity="0.4"/>
    <text x="14" y="58" font-family="Georgia, serif" font-size="11" fill="#f4ecd8">a microblog from</text>
    <text x="14" y="74" font-family="Georgia, serif" font-size="11" fill="#f4ecd8">finland; 2007&#x2013;2012</text>
  </g>
  <text x="36" y="288" font-family="Georgia, serif" font-style="italic" font-size="10" fill="#1a1f2e" opacity="0.5">discovery-based client libraries · 2010</text>
</svg>
