<svg xmlns="http://www.w3.org/2000/svg" viewBox="0 0 400 300" role="img" aria-label="cf-advisor-skill">
  <rect width="400" height="300" fill="#f4ecd8"/>
  <g transform="translate(50 50)">
    <g fill="#ede1c8" stroke="#1a1f2e" stroke-width="0.8">
      <rect x="0" y="0" width="50" height="30"/>
      <rect x="58" y="0" width="50" height="30"/>
      <rect x="116" y="0" width="50" height="30"/>
      <rect x="0" y="38" width="50" height="30"/>
      <rect x="58" y="38" width="50" height="30" fill="#d49431"/>
      <rect x="116" y="38" width="50" height="30"/>
      <rect x="0" y="76" width="50" height="30"/>
      <rect x="58" y="76" width="50" height="30"/>
      <rect x="116" y="76" width="50" height="30"/>
    </g>
    <g font-family="Georgia, serif" font-size="8" fill="#1a1f2e" text-anchor="middle">
      <text x="25" y="18">workers</text>
      <text x="83" y="18">d1</text>
      <text x="141" y="18">r2</text>
      <text x="25" y="56">queue</text>
      <text x="83" y="56" fill="#1a1f2e" font-weight="700">durable</text>
      <text x="141" y="56">kv</text>
      <text x="25" y="94">ai</text>
      <text x="83" y="94">vector</text>
      <text x="141" y="94">images</text>
    </g>
    <text x="0" y="128" font-family="Georgia, serif" font-size="9" fill="#1a1f2e" opacity="0.55">+ 18 more products</text>
  </g>
  <g transform="translate(232 80)">
    <path d="M 0 0 L 124 0 Q 138 0 138 14 L 138 64 Q 138 78 124 78 L 30 78 L 14 96 L 14 78 Q 0 78 0 64 Z" fill="#7f0000"/>
    <text x="14" y="20" font-family="Georgia, serif" font-size="10" font-weight="700" fill="#f4ecd8">advisor</text>
    <line x1="14" y1="26" x2="124" y2="26" stroke="#f4ecd8" stroke-width="0.8" opacity="0.4"/>
    <text x="14" y="44" font-family="Georgia, serif" font-size="10" fill="#f4ecd8">use Durable for</text>
    <text x="14" y="60" font-family="Georgia, serif" font-size="10" fill="#f4ecd8">stateful sequencing.</text>
  </g>
  <g transform="translate(248 200)">
    <path d="M 0 0 L 90 0 Q 100 0 100 10 L 100 38 Q 100 48 90 48 L 24 48 L 12 62 L 12 48 Q 0 48 0 38 Z" fill="#2d6377"/>
    <text x="50" y="22" font-family="Georgia, serif" font-size="10" font-weight="700" fill="#f4ecd8" text-anchor="middle">progressive</text>
    <text x="50" y="36" font-family="Georgia, serif" font-size="9" fill="#f4ecd8" opacity="0.85" text-anchor="middle">disclosure</text>
  </g>
</svg>
