<svg xmlns="http://www.w3.org/2000/svg" viewBox="0 0 400 300" role="img" aria-label="good-pr">
  <rect width="400" height="300" fill="#f4ecd8"/>
  <g fill="none" stroke="#1a1f2e" stroke-width="2.5" opacity="0.85">
    <path d="M 60 150 L 340 150"/>
  </g>
  <g fill="none" stroke="#7f0000" stroke-width="2.5">
    <path d="M 120 150 Q 160 150 170 110 Q 178 78 220 78 L 280 78 Q 320 78 320 118 Q 320 150 340 150"/>
  </g>
  <g>
    <circle cx="80" cy="150" r="7" fill="#1a1f2e"/>
    <circle cx="140" cy="150" r="7" fill="#1a1f2e"/>
    <circle cx="220" cy="78" r="7" fill="#7f0000"/>
    <circle cx="262" cy="78" r="7" fill="#7f0000"/>
    <circle cx="304" cy="118" r="7" fill="#7f0000"/>
    <circle cx="320" cy="150" r="9" fill="#d49431" stroke="#1a1f2e" stroke-width="1.5"/>
  </g>
  <g font-family="Georgia, serif" font-size="9" fill="#1a1f2e" opacity="0.65">
    <text x="80" y="174" text-anchor="middle">main</text>
    <text x="262" y="62" text-anchor="middle" fill="#7f0000" font-weight="700">feature</text>
    <text x="320" y="174" text-anchor="middle">merge</text>
  </g>
  <g transform="translate(64 222)">
    <rect x="0" y="0" width="270" height="44" fill="#faf3e0" stroke="#1a1f2e" stroke-width="1"/>
    <g font-family="ui-monospace, Menlo, monospace" font-size="10">
      <text x="10" y="16" fill="#6e8855">+ proper before/after</text>
      <text x="10" y="30" fill="#7f0000">- mystery refactor</text>
    </g>
    <text x="260" y="-6" font-family="Georgia, serif" font-style="italic" font-size="10" fill="#1a1f2e" opacity="0.55" text-anchor="end">a PR worth reviewing</text>
  </g>
</svg>
