<svg xmlns="http://www.w3.org/2000/svg" viewBox="0 0 400 300" role="img" aria-label="Planet Cloudflare">
  <defs>
    <pattern id="riso-dots" x="0" y="0" width="3.4" height="3.4" patternUnits="userSpaceOnUse" patternTransform="rotate(22)">
      <circle cx="1.7" cy="1.7" r="0.75" fill="#7f0000"/>
    </pattern>
    <pattern id="riso-dots-warm" x="0" y="0" width="3.4" height="3.4" patternUnits="userSpaceOnUse" patternTransform="rotate(22)">
      <circle cx="1.7" cy="1.7" r="0.75" fill="#e8b76b"/>
    </pattern>
    <radialGradient id="riso-bloom" cx="0.5" cy="0.42" r="0.7">
      <stop offset="0" stop-color="#e8b76b" stop-opacity="0.34"/>
      <stop offset="0.7" stop-color="#a83838" stop-opacity="0.06"/>
      <stop offset="1" stop-color="#7f0000" stop-opacity="0"/>
    </radialGradient>
    <radialGradient id="riso-vignette" cx="0.5" cy="0.55" r="0.88">
      <stop offset="0.5" stop-color="#1a0a0a" stop-opacity="0"/>
      <stop offset="1" stop-color="#1a0a0a" stop-opacity="0.38"/>
    </radialGradient>
  </defs>
  <defs>
    <radialGradient id="pcf-bg" cx="0.7" cy="0.3" r="0.9">
      <stop offset="0" stop-color="#1f2740"/>
      <stop offset="1" stop-color="#0f1320"/>
    </radialGradient>
    <radialGradient id="pcf-planet" cx="0.35" cy="0.35" r="0.7">
      <stop offset="0" stop-color="#e8b76b"/>
      <stop offset="0.6" stop-color="#d49431"/>
      <stop offset="1" stop-color="#7a4f15"/>
    </radialGradient>
  </defs>
  <rect width="400" height="300" fill="url(#pcf-bg)"/>
  <g fill="#f4ecd8">
    <circle cx="40" cy="38" r="1"/>
    <circle cx="92" cy="22" r="0.8"/>
    <circle cx="350" cy="30" r="1.2"/>
    <circle cx="310" cy="62" r="0.8"/>
    <circle cx="60" cy="72" r="0.6"/>
    <circle cx="22" cy="240" r="0.8"/>
    <circle cx="380" cy="180" r="1"/>
    <circle cx="370" cy="240" r="0.6"/>
  </g>
  <ellipse cx="200" cy="170" rx="156" ry="36" fill="none" stroke="#7f0000" stroke-width="2" opacity="0.95" transform="rotate(-12 200 170)"/>
  <ellipse cx="200" cy="170" rx="156" ry="36" fill="none" stroke="#7f0000" stroke-width="1" opacity="0.45" transform="rotate(-12 200 170) translate(0 6)"/>
  <circle cx="200" cy="160" r="62" fill="url(#pcf-planet)"/>
  <path d="M 158 142 Q 200 130 246 150 Q 220 156 192 154 Q 168 152 158 142 Z" fill="#7a4f15" opacity="0.55"/>
  <ellipse cx="180" cy="178" rx="14" ry="6" fill="#7a4f15" opacity="0.4"/>
  <circle cx="64" cy="146" r="3" fill="#d49431"/>
  <circle cx="338" cy="200" r="3" fill="#7f0000"/>
  <circle cx="120" cy="230" r="2" fill="#f4ecd8" opacity="0.7"/>
  <g aria-hidden="true" style="pointer-events:none">
    <rect width="400" height="300" fill="url(#riso-bloom)" style="mix-blend-mode:screen"/>
    <rect width="400" height="300" fill="url(#riso-dots)" opacity="0.16" style="mix-blend-mode:multiply"/>
    <rect width="400" height="300" fill="url(#riso-dots-warm)" opacity="0.08" style="mix-blend-mode:screen"/>
    <rect width="400" height="300" fill="url(#riso-vignette)" style="mix-blend-mode:multiply"/>
  </g>
</svg>
