<svg xmlns="http://www.w3.org/2000/svg" viewBox="0 0 400 300" role="img" aria-label="Yaket">
  <defs>
    <pattern id="riso-dots" x="0" y="0" width="3.4" height="3.4" patternUnits="userSpaceOnUse" patternTransform="rotate(22)">
      <circle cx="1.7" cy="1.7" r="0.75" fill="#7f0000"/>
    </pattern>
    <pattern id="riso-dots-warm" x="0" y="0" width="3.4" height="3.4" patternUnits="userSpaceOnUse" patternTransform="rotate(22)">
      <circle cx="1.7" cy="1.7" r="0.75" fill="#e8b76b"/>
    </pattern>
    <radialGradient id="riso-bloom" cx="0.5" cy="0.42" r="0.7">
      <stop offset="0" stop-color="#e8b76b" stop-opacity="0.34"/>
      <stop offset="0.7" stop-color="#a83838" stop-opacity="0.06"/>
      <stop offset="1" stop-color="#7f0000" stop-opacity="0"/>
    </radialGradient>
    <radialGradient id="riso-vignette" cx="0.5" cy="0.55" r="0.88">
      <stop offset="0.5" stop-color="#1a0a0a" stop-opacity="0"/>
      <stop offset="1" stop-color="#1a0a0a" stop-opacity="0.38"/>
    </radialGradient>
  </defs>
  <rect width="400" height="300" fill="#f4ecd8"/>
  <line x1="40" y1="170" x2="360" y2="170" stroke="#1a1f2e" stroke-width="1.5" opacity="0.55"/>
  <g>
    <rect x="56" y="138" width="38" height="32" fill="#ede1c8" stroke="#1a1f2e" stroke-width="1" opacity="0.85"/>
    <rect x="106" y="118" width="62" height="52" fill="#d49431"/>
    <rect x="106" y="118" width="62" height="52" fill="none" stroke="#1a1f2e" stroke-width="1" opacity="0.5"/>
    <rect x="180" y="146" width="46" height="24" fill="#ede1c8" stroke="#1a1f2e" stroke-width="1" opacity="0.85"/>
    <rect x="238" y="100" width="56" height="70" fill="#7f0000"/>
    <circle cx="266" cy="80" r="14" fill="none" stroke="#7f0000" stroke-width="2"/>
    <rect x="306" y="138" width="42" height="32" fill="#ede1c8" stroke="#1a1f2e" stroke-width="1" opacity="0.85"/>
  </g>
  <g stroke="#1a1f2e" opacity="0.5" stroke-width="1">
    <line x1="60" y1="180" x2="60" y2="200"/>
    <line x1="125" y1="180" x2="125" y2="208"/>
    <line x1="200" y1="180" x2="200" y2="196"/>
    <line x1="266" y1="180" x2="266" y2="220"/>
    <line x1="320" y1="180" x2="320" y2="196"/>
  </g>
  <g font-family="Georgia, serif" font-size="11" fill="#1a1f2e" opacity="0.65" text-anchor="middle">
    <text x="60" y="234">.41</text>
    <text x="125" y="234">.62</text>
    <text x="200" y="234">.39</text>
    <text x="266" y="234" fill="#7f0000" opacity="1" font-weight="700">.93</text>
    <text x="320" y="234">.45</text>
  </g>
  <text x="44" y="64" font-family="Georgia, serif" font-style="italic" font-size="14" fill="#1a1f2e" opacity="0.65">keyword score</text>
  <g aria-hidden="true" style="pointer-events:none">
    <rect width="400" height="300" fill="url(#riso-bloom)" style="mix-blend-mode:screen"/>
    <rect width="400" height="300" fill="url(#riso-dots)" opacity="0.16" style="mix-blend-mode:multiply"/>
    <rect width="400" height="300" fill="url(#riso-dots-warm)" opacity="0.08" style="mix-blend-mode:screen"/>
    <rect width="400" height="300" fill="url(#riso-vignette)" style="mix-blend-mode:multiply"/>
  </g>
</svg>
