<svg xmlns="http://www.w3.org/2000/svg" viewBox="0 0 360 160" role="img" aria-label="Abstract illustration for garten">
<rect width="360" height="160" fill="#e8d8b5"/>
<rect x="10.0" y="10.0" width="340.0" height="140.0" fill="none" opacity="1.000" stroke="#393832" stroke-width="1.1"/>
<line x1="46.0" y1="34.0" x2="336.0" y2="34.0" stroke="#393832" stroke-width="0.9" opacity="0.160"/>
<line x1="46.0" y1="62.0" x2="336.0" y2="62.0" stroke="#393832" stroke-width="0.9" opacity="0.160"/>
<line x1="46.0" y1="90.0" x2="336.0" y2="90.0" stroke="#393832" stroke-width="0.9" opacity="0.160"/>
<line x1="46.0" y1="118.0" x2="336.0" y2="118.0" stroke="#393832" stroke-width="0.9" opacity="0.160"/>
<rect x="58.0" y="30.0" width="82.0" height="84.0" fill="#534e45" opacity="0.680" stroke="#3f403d" stroke-width="1.1"/>
<rect x="158.0" y="34.0" width="143.0" height="38.0" fill="#c9d1d6" opacity="0.760"/>
<line x1="62.0" y1="122.0" x2="155.2" y2="42.0" stroke="#3f403d" stroke-width="1.6" opacity="0.720"/>
<ellipse cx="80.6" cy="106.0" rx="14" ry="4" fill="#5e5f5f" opacity="0.28" transform="rotate(-16 80.6 106.0)"/>
<ellipse cx="99.3" cy="90.0" rx="14" ry="4" fill="#5e5f5f" opacity="0.28" transform="rotate(-4 99.3 90.0)"/>
<circle cx="155.2" cy="42.0" r="10.1" fill="#5e5f5f" opacity="0.640"/>
<line x1="46.0" y1="137.0" x2="330.0" y2="137.0" stroke="#3f403d" stroke-width="1.2" opacity="0.340"/>
<line x1="46.0" y1="145.0" x2="161.0" y2="145.0" stroke="#7f0000" stroke-width="3.0" opacity="0.920"/>
<line x1="161.0" y1="128.0" x2="161.0" y2="150.0" stroke="#5e5f5f" stroke-width="1.5" opacity="0.700"/>
</svg>
