<svg xmlns="http://www.w3.org/2000/svg" viewBox="0 0 360 160" role="img" aria-label="Abstract illustration for demoscene">
<rect width="360" height="160" fill="#e8d7b3"/>
<rect x="10.0" y="10.0" width="340.0" height="140.0" fill="none" opacity="1.000" stroke="#363530" stroke-width="1.1"/>
<line x1="46.0" y1="34.0" x2="336.0" y2="34.0" stroke="#363530" stroke-width="0.9" opacity="0.160"/>
<line x1="46.0" y1="62.0" x2="336.0" y2="62.0" stroke="#363530" stroke-width="0.9" opacity="0.160"/>
<line x1="46.0" y1="90.0" x2="336.0" y2="90.0" stroke="#363530" stroke-width="0.9" opacity="0.160"/>
<line x1="46.0" y1="118.0" x2="336.0" y2="118.0" stroke="#363530" stroke-width="0.9" opacity="0.160"/>
<rect x="58.0" y="30.0" width="82.0" height="84.0" fill="#48453f" opacity="0.680" stroke="#363631" stroke-width="1.1"/>
<rect x="158.0" y="34.0" width="142.0" height="38.0" fill="#cdd3d6" opacity="0.760"/>
<line x1="62.0" y1="122.0" x2="232.2" y2="39.0" stroke="#363631" stroke-width="1.6" opacity="0.720"/>
<ellipse cx="96.0" cy="105.4" rx="14" ry="4" fill="#634f3c" opacity="0.28" transform="rotate(-16 96.0 105.4)"/>
<ellipse cx="130.1" cy="88.8" rx="14" ry="4" fill="#634f3c" opacity="0.28" transform="rotate(-4 130.1 88.8)"/>
<ellipse cx="164.1" cy="72.2" rx="14" ry="4" fill="#634f3c" opacity="0.28" transform="rotate(8 164.1 72.2)"/>
<ellipse cx="198.1" cy="55.6" rx="14" ry="4" fill="#634f3c" opacity="0.28" transform="rotate(20 198.1 55.6)"/>
<circle cx="232.2" cy="39.0" r="13.4" fill="#634f3c" opacity="0.640"/>
<line x1="46.0" y1="137.0" x2="330.0" y2="137.0" stroke="#363631" stroke-width="1.2" opacity="0.340"/>
<line x1="46.0" y1="145.0" x2="256.1" y2="145.0" stroke="#7f0000" stroke-width="3.0" opacity="0.920"/>
<line x1="256.1" y1="128.0" x2="256.1" y2="150.0" stroke="#634f3c" stroke-width="1.5" opacity="0.700"/>
</svg>
